<svg data-v-423bf9ae="" xmlns="http://www.w3.org/2000/svg" viewBox="0 0 285.44631050617915 60" class="font"><!----><!----><!----><g data-v-423bf9ae="" id="fd6f3d52-a9e2-4138-befa-f41820787e77" fill="white" transform="matrix(5.410278991416846,0,0,5.410278991416846,-7.6284904485000595,-14.553650796489968)"><path d="M3.10 3.63L3.10 13.64L1.41 13.64L1.41 3.63L3.10 3.63ZM5.65 13.64L5.65 6.40L6.99 6.40L7.23 7.64Q7.46 7.42 7.77 7.17Q8.07 6.93 8.42 6.73Q8.78 6.53 9.17 6.40Q9.56 6.26 9.99 6.26L9.99 6.26Q10.49 6.26 10.89 6.45Q11.30 6.64 11.59 6.98Q11.87 7.31 12.03 7.79Q12.19 8.26 12.19 8.82L12.19 8.82L12.19 13.64L10.53 13.64L10.53 9.02Q10.53 8.65 10.42 8.37Q10.32 8.09 10.14 7.90Q9.96 7.72 9.71 7.62Q9.46 7.53 9.17 7.53L9.17 7.53Q8.67 7.53 8.22 7.79Q7.77 8.05 7.31 8.47L7.31 8.47L7.31 13.64L5.65 13.64ZM14.47 13.64L14.47 2.69L16.13 2.69L16.13 13.64L14.47 13.64ZM21.23 13.64L19.23 13.64L16.53 9.82L19.35 6.42L21.02 6.42L18.18 9.62L21.23 13.64ZM24.66 13.64L22.97 13.64L22.97 3.63L29.06 3.63L28.83 4.83L24.66 4.83L24.66 7.85L28.36 7.85L28.14 9.02L24.66 9.02L24.66 13.64ZM30.86 13.64L30.86 2.69L32.52 2.69L32.52 13.64L30.86 13.64ZM37.86 13.78L37.86 13.78Q37.01 13.78 36.36 13.49Q35.70 13.21 35.26 12.72Q34.82 12.23 34.59 11.59Q34.36 10.94 34.36 10.23L34.36 10.23Q34.36 9.40 34.65 8.68Q34.95 7.96 35.48 7.42Q36.00 6.88 36.74 6.57Q37.47 6.26 38.34 6.26L38.34 6.26Q39.20 6.26 39.85 6.55Q40.51 6.84 40.95 7.33Q41.40 7.82 41.63 8.47Q41.86 9.11 41.86 9.83L41.86 9.83Q41.86 10.66 41.56 11.39Q41.26 12.11 40.73 12.64Q40.20 13.17 39.46 13.48Q38.73 13.78 37.86 13.78ZM38.15 12.60L38.15 12.60Q38.59 12.60 38.95 12.42Q39.31 12.24 39.57 11.91Q39.83 11.59 39.98 11.14Q40.12 10.68 40.12 10.14L40.12 10.14Q40.12 9.60 39.98 9.12Q39.84 8.63 39.57 8.26Q39.31 7.89 38.92 7.67Q38.54 7.44 38.06 7.44L38.06 7.44Q37.61 7.44 37.25 7.63Q36.89 7.81 36.63 8.14Q36.37 8.47 36.23 8.92Q36.09 9.38 36.09 9.92L36.09 9.92Q36.09 10.46 36.23 10.94Q36.37 11.43 36.63 11.80Q36.90 12.17 37.28 12.38Q37.67 12.60 38.15 12.60ZM42.90 6.40L44.71 6.40L45.87 11.17L46.08 12.40L46.21 12.40L46.45 11.18L47.74 6.62L49.58 6.62L50.86 11.17L51.11 12.40L51.25 12.40L51.46 11.18L52.64 6.40L54.17 6.40L51.98 13.64L50.13 13.64L48.92 9.46L48.62 8.09L48.48 8.09L48.17 9.47L46.92 13.64L45.06 13.64L42.90 6.40Z"></path></g><!----><!----></svg>